<svg xmlns="http://www.w3.org/2000/svg" version="1.1" xmlns:xlink="http://www.w3.org/1999/xlink" xmlns:svgjs="http://svgjs.com/svgjs" width="512" height="512" x="0" y="0" viewBox="0 0 512 512" style="enable-background:new 0 0 512 512" xml:space="preserve" class=""><g><path d="M508.532 246.052c-68.889-86.785-158.572-134.579-252.531-134.58H256c-93.952 0-183.647 47.8-252.532 134.58a16.002 16.002 0 0 0 0 19.896c68.89 86.785 158.574 134.58 252.533 134.58s183.643-47.795 252.531-134.58a16.002 16.002 0 0 0 0-19.896zM256.001 368.527c-80.399 0-157.854-39.848-219.319-112.527 61.466-72.68 138.92-112.527 219.319-112.527 80.398 0 157.852 39.848 219.317 112.527-61.465 72.679-138.919 112.527-219.317 112.527zM256 162.992c-51.284 0-93.008 41.723-93.008 93.008s41.724 93.008 93.008 93.008c51.285 0 93.009-41.723 93.009-93.008S307.285 162.992 256 162.992zm0 154.016c-33.64 0-61.008-27.368-61.008-61.008S222.36 194.992 256 194.992c33.641 0 61.009 27.368 61.009 61.008S289.641 317.008 256 317.008z" fill="#e8f3fe" data-original="#000000" class=""></path></g></svg>