<svg id="Layer_1" enable-background="new 0 0 512 512" height="512" viewBox="0 0 512 512" width="512" xmlns="http://www.w3.org/2000/svg"><path d="m508.532 246.052c-68.889-86.785-158.572-134.579-252.531-134.58-.006 0 .005 0-.001 0-93.952 0-183.647 47.8-252.532 134.58-4.624 5.826-4.624 14.07 0 19.896 68.89 86.785 158.574 134.58 252.533 134.58s183.643-47.795 252.531-134.58c4.624-5.826 4.624-14.07 0-19.896zm-252.531 122.475c-80.399 0-157.854-39.848-219.319-112.527 61.466-72.68 138.92-112.527 219.319-112.527 80.398 0 157.852 39.848 219.317 112.527-61.465 72.679-138.919 112.527-219.317 112.527zm-.001-205.535c-51.284 0-93.008 41.723-93.008 93.008s41.724 93.008 93.008 93.008c51.285 0 93.009-41.723 93.009-93.008s-41.724-93.008-93.009-93.008zm0 154.016c-33.64 0-61.008-27.368-61.008-61.008s27.368-61.008 61.008-61.008c33.641 0 61.009 27.368 61.009 61.008s-27.368 61.008-61.009 61.008z"/></svg>