<svg id="Layer_1" enable-background="new 0 0 512 512" height="512" viewBox="0 0 512 512" width="512" xmlns="http://www.w3.org/2000/svg" xmlns:xlink="http://www.w3.org/1999/xlink"><linearGradient id="SVGID_1_" gradientUnits="userSpaceOnUse" x1=".003" x2="511.997" y1="256" y2="256"><stop offset="0" stop-color="#a647fe"/><stop offset=".1488" stop-color="#a04cfc"/><stop offset=".3414" stop-color="#905af8"/><stop offset=".5582" stop-color="#7571f0"/><stop offset=".7908" stop-color="#5191e5"/><stop offset="1" stop-color="#29b4d9"/></linearGradient><path d="m256 118.9c-47.89 0-86.85 38.96-86.85 86.85s38.96 86.85 86.85 86.85 86.85-38.96 86.85-86.85-38.96-86.85-86.85-86.85zm0 157.72c-39.08 0-70.87-31.79-70.87-70.87s31.79-70.87 70.87-70.87 70.87 31.79 70.87 70.87-31.79 70.87-70.87 70.87zm256-20.61c0-141.16-114.84-256-256-256s-256 114.85-256 256c0 78.51 35.54 148.86 91.37 195.85.59.71 1.31 1.33 2.15 1.81 44.23 36.42 100.84 58.31 162.48 58.31s118.25-21.89 162.48-58.31c.83-.48 1.55-1.09 2.15-1.8 55.82-46.99 91.37-117.35 91.37-195.86zm-404.89 188.09c30.82-77.69 87.47-125.7 148.89-125.7 61.45 0 118.1 48 148.89 125.7-40.95 32.47-92.69 51.9-148.89 51.9s-107.94-19.43-148.89-51.9zm310.6-10.91c-33.73-80.97-94.91-130.77-161.71-130.77-66.77 0-127.95 49.8-161.71 130.77-48.09-43.92-78.3-107.08-78.3-177.18 0-132.34 107.67-240.01 240.01-240.01s240.01 107.67 240.01 240.01c0 70.1-30.21 133.26-78.3 177.18z" fill="url(#SVGID_1_)"/></svg>