<svg clip-rule="evenodd" fill-rule="evenodd" height="512" stroke-linejoin="round" stroke-miterlimit="2" viewBox="0 0 48 48" width="512" xmlns="http://www.w3.org/2000/svg" xmlns:xlink="http://www.w3.org/1999/xlink"><linearGradient id="_Linear1" gradientTransform="matrix(48.5 48.5 -48.5 48.5 575.5 215.5)" gradientUnits="userSpaceOnUse" x1="0" x2="1" y1="0" y2="0"><stop offset="0" stop-color="#79c5d4"/><stop offset="1" stop-color="#276dd7"/></linearGradient><g transform="translate(-576 -216)"><g id="SOLID-GRADIENT"><path d="m600 218c12.142 0 22 9.858 22 22s-9.858 22-22 22-22-9.858-22-22 9.858-22 22-22zm16.388 33.462c2.276-3.247 3.612-7.2 3.612-11.462 0-11.038-8.962-20-20-20s-20 8.962-20 20c0 4.262 1.336 8.215 3.612 11.462 3.96-4.567 9.819-7.462 16.388-7.462s12.428 2.895 16.388 7.462zm-16.388-27.462c4.967 0 9 4.033 9 9s-4.033 9-9 9-9-4.033-9-9 4.033-9 9-9z" fill="url(#_Linear1)"/></g></g></svg>